<?xml version="1.0" encoding="utf-8"?>
<!-- Generator: Adobe Illustrator 16.0.4, SVG Export Plug-In . SVG Version: 6.00 Build 0)  -->
<!DOCTYPE svg PUBLIC "-//W3C//DTD SVG 1.1//EN" "http://www.w3.org/Graphics/SVG/1.1/DTD/svg11.dtd">
<svg version="1.1" xmlns="http://www.w3.org/2000/svg" xmlns:xlink="http://www.w3.org/1999/xlink" x="0px" y="0px"
	 width="972.627px" height="331.561px" viewBox="0 0 972.627 331.561" enable-background="new 0 0 972.627 331.561"
	 xml:space="preserve">
<symbol  id="logo_apollo_space" viewBox="-486.326 -165.78 972.652 331.561">
	<g>
		<polygon fill="#333333" points="-284.735,51.4 -309.046,51.4 -344.147,-39.697 -322.157,-39.697 -316.421,-24.266 
			-283.255,-24.266 -289.259,-7.191 -311.095,-7.191 -296.89,32.006 -271.622,-39.697 -249.634,-39.697 		"/>
		<path fill="#333333" d="M84.567-39.697V51.4h19.531v-74.025h38.514v-17.072H84.567z"/>
		<path fill="#333333" d="M197.132-39.697V51.4h19.531v-74.025h38.516v-17.072H197.132z"/>
		<path fill="#333333" d="M-23.599,35.074c16.152,0,29.293-13.139,29.293-29.292c0-16.151-13.141-29.292-29.293-29.292
			S-52.89-10.369-52.89,5.782C-52.89,21.936-39.751,35.074-23.599,35.074 M-23.599,52.901c-26.023,0-47.119-21.096-47.119-47.119
			s21.096-47.12,47.119-47.12s47.119,21.097,47.119,47.12S2.425,52.901-23.599,52.901L-23.599,52.901z"/>
		<path fill="#333333" d="M344.964,35.074c16.154,0,29.295-13.139,29.295-29.292c0-16.151-13.141-29.292-29.295-29.292
			c-16.152,0-29.291,13.141-29.291,29.292C315.673,21.936,328.812,35.074,344.964,35.074 M344.964,52.901
			c-26.021,0-47.119-21.096-47.119-47.119s21.098-47.12,47.119-47.12c26.023,0,47.121,21.097,47.121,47.12
			S370.987,52.901,344.964,52.901L344.964,52.901z"/>
		<path fill="#333333" d="M-150.335,51.4h-23.082h-3.311h-16.084v-91.098h19.395v31.35h23.082c16.191,0,29.316,13.685,29.316,29.874
			C-121.019,37.718-134.144,51.4-150.335,51.4z M-150.335,9.481h-23.082v24.091h23.082c6.336,0,11.488-5.711,11.488-12.046
			S-143.999,9.481-150.335,9.481z"/>
		<g>
			<path fill="#333333" d="M-209.558-67.345c-1.688,0-3.178-0.836-4.088-2.118c0,0-4.375-4.991-6.734-7.353
				c-9.979-9.979-21.598-17.812-34.533-23.284c-13.387-5.663-27.611-8.534-42.281-8.534c-14.672,0-28.896,2.871-42.281,8.534
				c-12.936,5.472-24.555,13.305-34.533,23.284c-9.98,9.981-17.814,21.599-23.285,34.534c-5.661,13.387-8.533,27.613-8.533,42.282
				s2.872,28.895,8.533,42.282c5.471,12.935,13.305,24.553,23.285,34.532c9.979,9.98,21.598,17.813,34.533,23.285
				c13.385,5.663,27.609,8.534,42.281,8.534c14.67,0,28.895-2.871,42.281-8.534c9.422-3.985,18.141-9.23,26.041-15.639
				c-0.422-1.243-0.658-2.576-0.658-3.963c0-6.769,5.488-12.257,12.256-12.257c6.77,0,12.258,5.488,12.258,12.257
				c0,6.77-5.488,12.257-12.258,12.257c-1.68,0-3.283-0.339-4.742-0.953c-20.467,16.782-46.645,26.858-75.178,26.858
				c-65.535,0-118.661-53.125-118.661-118.66s53.126-118.661,118.661-118.661c36.658,0,69.42,16.636,91.184,42.758
				c0.906,0.907,1.469,2.16,1.469,3.543C-204.542-69.588-206.786-67.345-209.558-67.345z"/>
		</g>
	</g>
	<polygon fill="none" points="486.325,-165.78 -486.326,-165.78 -486.326,165.78 486.325,165.78 	"/>
</symbol>
<g id="Layer_1">
</g>
<g id="Layer_2">
	
		<use xlink:href="#logo_apollo_space"  width="972.652" height="331.561" x="-486.326" y="-165.78" transform="matrix(1 0 0 -1 486.3135 165.7803)" overflow="visible"/>
</g>
</svg>
