<?xml version="1.0" encoding="utf-8"?>
<!-- Generator: Adobe Illustrator 16.0.4, SVG Export Plug-In . SVG Version: 6.00 Build 0)  -->
<!DOCTYPE svg PUBLIC "-//W3C//DTD SVG 1.1//EN" "http://www.w3.org/Graphics/SVG/1.1/DTD/svg11.dtd">
<svg version="1.1" id="Layer_1" xmlns="http://www.w3.org/2000/svg" xmlns:xlink="http://www.w3.org/1999/xlink" x="0px" y="0px"
	 width="643.004px" height="278.068px" viewBox="0 0 643.004 278.068" enable-background="new 0 0 643.004 278.068"
	 xml:space="preserve">
<g id="Layer_1_2_">
</g>
<g id="logo-coralspace">
	<g>
		<g>
			<path fill="#DE4F4F" d="M518.236,175.453L388.867,37.981L526.338,167.35c2.305,2.169,2.416,5.796,0.246,8.103
				c-2.17,2.305-5.795,2.415-8.104,0.245C518.402,175.623,518.312,175.532,518.236,175.453"/>
			<path fill="#DE4F4F" d="M499.221,185.148l-97.547-105.65l105.651,97.549c2.326,2.147,2.471,5.774,0.322,8.103
				c-2.146,2.326-5.775,2.472-8.102,0.321C499.436,185.37,499.322,185.256,499.221,185.148"/>
			<path fill="#DE4F4F" d="M479.455,185.432l-64.827-70.228l70.227,64.826c1.553,1.432,1.648,3.851,0.217,5.401
				c-1.432,1.55-3.852,1.647-5.4,0.217C479.598,185.58,479.521,185.504,479.455,185.432"/>
			<path fill="#DE4F4F" d="M533.771,136.825l-67.68-73.083l73.08,67.682c1.549,1.435,1.643,3.854,0.207,5.401
				s-3.852,1.641-5.4,0.206C533.908,136.968,533.836,136.893,533.771,136.825"/>
			<path fill="#DE4F4F" d="M527.932,157.286L429.96,51.213l106.073,97.972c2.326,2.147,2.471,5.773,0.322,8.102
				c-2.146,2.326-5.775,2.47-8.102,0.32C528.143,157.507,528.031,157.393,527.932,157.286"/>
			<path fill="#DE4F4F" d="M459.246,179.677l-30.84-33.54l33.54,30.841c0.777,0.715,0.828,1.924,0.115,2.699
				c-0.715,0.777-1.924,0.827-2.701,0.114C459.321,179.754,459.282,179.715,459.246,179.677"/>
			<path fill="#DE4F4F" d="M531.352,112.544l-30.838-33.541l33.539,30.84c0.777,0.717,0.828,1.925,0.113,2.701
				c-0.715,0.777-1.924,0.827-2.701,0.114C531.428,112.621,531.387,112.581,531.352,112.544"/>
		</g>
		<polygon fill="#333333" points="0,92.715 21.975,92.715 46.333,131.9 70.692,92.715 92.668,92.715 92.668,185.385 72.544,185.385 
			72.544,124.885 46.464,164.467 45.937,164.467 20.121,125.282 20.121,185.385 0,185.385 		"/>
		<polygon fill="#333333" points="127.64,92.715 197.407,92.715 197.407,110.851 147.763,110.851 147.763,129.65 191.45,129.65 
			191.45,147.787 147.763,147.787 147.763,167.247 198.067,167.247 198.067,185.385 127.64,185.385 		"/>
		<polygon fill="#333333" points="251.154,111.512 222.958,111.512 222.958,92.715 299.739,92.715 299.739,111.512 271.541,111.512 
			271.541,185.384 251.154,185.384 		"/>
		<polygon fill="#333333" points="328.597,92.715 398.363,92.715 398.363,110.851 348.72,110.851 348.72,129.65 392.407,129.65 
			392.407,147.787 348.72,147.787 348.72,167.247 399.025,167.247 399.025,185.385 328.597,185.385 		"/>
		<path fill="#333333" d="M562.914,92.715h42.359c11.738,0,20.74,3.135,27.006,9.399c5.299,5.295,7.943,12.356,7.943,21.181v0.267
			c0,7.503-1.832,13.613-5.492,18.336c-3.664,4.723-8.453,8.186-14.365,10.393l22.639,33.095h-23.828l-19.857-29.652h-0.264h-15.756
			v29.651h-20.385V92.715L562.914,92.715z M603.953,137.726c5.029,0,8.889-1.192,11.582-3.574c2.691-2.384,4.037-5.562,4.037-9.533
			v-0.265c0-4.412-1.414-7.722-4.238-9.93c-2.824-2.205-6.75-3.31-11.779-3.31h-20.256v26.611H603.953z"/>
	</g>
</g>
</svg>
