<?xml version="1.0" encoding="utf-8"?>
<!-- Generator: Adobe Illustrator 16.0.4, SVG Export Plug-In . SVG Version: 6.00 Build 0)  -->
<!DOCTYPE svg PUBLIC "-//W3C//DTD SVG 1.1//EN" "http://www.w3.org/Graphics/SVG/1.1/DTD/svg11.dtd">
<svg version="1.1" id="Layer_1" xmlns="http://www.w3.org/2000/svg" xmlns:xlink="http://www.w3.org/1999/xlink" x="0px" y="0px"
	 width="807.682px" height="331.561px" viewBox="0 0 807.682 331.561" enable-background="new 0 0 807.682 331.561"
	 xml:space="preserve">
<g id="Layer_1_1_">
</g>
<g id="logo_apollo_white">
	<g>
		<polygon fill="#333333" points="130.863,114.38 106.552,114.38 71.451,205.477 93.44,205.477 99.177,190.045 132.343,190.045 
			126.339,172.971 104.5,172.971 118.706,133.773 143.976,205.477 165.964,205.477 		"/>
		<path fill="#333333" d="M500.165,205.477V114.38h19.528v74.024h38.517v17.072H500.165z"/>
		<path fill="#333333" d="M612.729,205.477V114.38h19.531v74.024h38.516v17.072H612.729z"/>
		<path fill="#333333" d="M391.998,130.705c16.152,0,29.293,13.14,29.293,29.292c0,16.151-13.141,29.292-29.293,29.292
			c-16.151,0-29.292-13.141-29.292-29.292C362.706,143.842,375.847,130.705,391.998,130.705 M391.998,112.88
			c-26.022,0-47.118,21.096-47.118,47.117c0,26.023,21.096,47.12,47.118,47.12s47.12-21.097,47.12-47.12
			C439.118,133.974,418.021,112.88,391.998,112.88L391.998,112.88z"/>
		<path fill="#333333" d="M760.561,130.705c16.154,0,29.295,13.14,29.295,29.292c0,16.151-13.141,29.292-29.295,29.292
			c-16.152,0-29.291-13.141-29.291-29.292C731.27,143.842,744.409,130.705,760.561,130.705 M760.561,112.88
			c-26.021,0-47.119,21.096-47.119,47.117c0,26.023,21.101,47.12,47.119,47.12c26.023,0,47.121-21.097,47.121-47.12
			C807.682,133.974,786.585,112.88,760.561,112.88L760.561,112.88z"/>
		<path fill="#333333" d="M265.263,114.38h-23.082h-3.312h-16.084v91.099h19.396v-31.353h23.082
			c16.189,0,29.314-13.685,29.314-29.874C294.577,128.061,281.452,114.38,265.263,114.38z M265.263,156.298h-23.082v-24.089h23.082
			c6.336,0,11.486,5.711,11.486,12.045C276.749,150.589,271.599,156.298,265.263,156.298z"/>
		<g>
			<path fill="#333333" d="M206.038,233.124c-1.688,0-3.178,0.836-4.088,2.118c0,0-4.375,4.991-6.732,7.354
				c-9.979,9.979-21.6,17.812-34.533,23.281c-13.387,5.663-27.611,8.534-42.281,8.534c-14.672,0-28.896-2.871-42.281-8.534
				c-12.936-5.472-24.555-13.305-34.532-23.281c-9.979-9.981-17.813-21.602-23.285-34.534c-5.66-13.39-8.533-27.613-8.533-42.282
				s2.873-28.895,8.533-42.281c5.472-12.936,13.306-24.554,23.285-34.533s21.598-17.812,34.532-23.285
				c13.386-5.661,27.609-8.532,42.281-8.532c14.67,0,28.896,2.871,42.281,8.532c9.422,3.986,18.141,9.23,26.041,15.641
				c-0.422,1.243-0.658,2.576-0.658,3.963c0,6.77,5.488,12.258,12.256,12.258c6.771,0,12.258-5.488,12.258-12.258
				c0-6.771-5.487-12.257-12.258-12.257c-1.68,0-3.283,0.339-4.742,0.953c-20.467-16.782-46.645-26.858-75.178-26.858
				c-65.535,0-118.66,53.125-118.66,118.66s53.125,118.661,118.66,118.661c36.658,0,69.42-16.636,91.185-42.758
				c0.905-0.907,1.469-2.16,1.469-3.543C211.056,235.367,208.812,233.124,206.038,233.124z"/>
		</g>
	</g>
</g>
<g>
</g>
</svg>
