<?xml version="1.0" encoding="utf-8"?>
<!-- Generator: Adobe Illustrator 16.0.4, SVG Export Plug-In . SVG Version: 6.00 Build 0)  -->
<!DOCTYPE svg PUBLIC "-//W3C//DTD SVG 1.1//EN" "http://www.w3.org/Graphics/SVG/1.1/DTD/svg11.dtd">
<svg version="1.1" id="Layer_1" xmlns="http://www.w3.org/2000/svg" xmlns:xlink="http://www.w3.org/1999/xlink" x="0px" y="0px"
	 width="78.688px" height="13.622px" viewBox="0 0 78.688 13.622" enable-background="new 0 0 78.688 13.622" xml:space="preserve">
<g>
	<path fill="#333333" d="M0,10.676V0h3.648c3.33,0,5.475,2.321,5.475,5.347c0,3.041-2.146,5.329-5.475,5.329H0z M7.747,5.347
		c0-2.306-1.457-4.162-4.099-4.162H1.329v8.308h2.32C6.243,9.491,7.747,7.635,7.747,5.347z"/>
	<path fill="#333333" d="M10.704,6.803c0-2.241,1.601-4.05,3.81-4.05c2.337,0,3.713,1.824,3.713,4.146v0.303h-6.243
		c0.097,1.457,1.104,2.673,2.77,2.673c0.896,0,1.776-0.352,2.4-0.992l0.576,0.785c-0.785,0.769-1.825,1.199-3.072,1.199
		C12.353,10.868,10.704,9.22,10.704,6.803z M14.498,3.745c-1.649,0-2.465,1.393-2.529,2.562h5.074
		C17.026,5.17,16.258,3.745,14.498,3.745z"/>
	<path fill="#333333" d="M22.225,10.676l-3.217-7.73h1.312l2.562,6.34l2.577-6.34h1.296l-3.217,7.73H22.225z"/>
	<path fill="#333333" d="M27.552,6.803c0-2.241,1.601-4.05,3.81-4.05c2.338,0,3.714,1.824,3.714,4.146v0.303h-6.243
		c0.096,1.457,1.104,2.673,2.769,2.673c0.896,0,1.777-0.352,2.401-0.992l0.576,0.785c-0.785,0.769-1.825,1.199-3.073,1.199
		C29.2,10.868,27.552,9.22,27.552,6.803z M31.345,3.745c-1.649,0-2.465,1.393-2.529,2.562h5.074
		C33.874,5.17,33.106,3.745,31.345,3.745z"/>
	<path fill="#333333" d="M37.008,10.676V0h1.2v10.676H37.008z"/>
	<path fill="#333333" d="M40.159,6.803c0-2.241,1.473-4.05,3.824-4.05c2.354,0,3.826,1.809,3.826,4.05
		c0,2.24-1.473,4.064-3.826,4.064C41.632,10.868,40.159,9.043,40.159,6.803z M46.545,6.803c0-1.569-0.912-2.978-2.562-2.978
		c-1.647,0-2.561,1.408-2.561,2.978c0,1.585,0.913,2.992,2.561,2.992C45.633,9.795,46.545,8.388,46.545,6.803z"/>
	<path fill="#333333" d="M50.96,9.508v4.113h-1.201V2.945h1.201v1.152c0.561-0.784,1.52-1.345,2.608-1.345
		c2.032,0,3.441,1.537,3.441,4.05c0,2.498-1.409,4.066-3.441,4.066C52.513,10.868,51.6,10.356,50.96,9.508z M55.745,6.803
		c0-1.713-0.929-2.978-2.48-2.978c-0.944,0-1.889,0.561-2.305,1.232v3.49c0.416,0.672,1.359,1.248,2.305,1.248
		C54.817,9.795,55.745,8.516,55.745,6.803z"/>
	<path fill="#333333" d="M58.463,6.803c0-2.241,1.601-4.05,3.81-4.05c2.337,0,3.713,1.824,3.713,4.146v0.303h-6.241
		c0.096,1.457,1.104,2.673,2.77,2.673c0.896,0,1.776-0.352,2.4-0.992l0.576,0.785c-0.784,0.769-1.824,1.199-3.072,1.199
		C60.111,10.868,58.463,9.22,58.463,6.803z M62.257,3.745c-1.649,0-2.465,1.393-2.529,2.562h5.074
		C64.785,5.17,64.017,3.745,62.257,3.745z"/>
	<path fill="#333333" d="M67.919,10.676V2.945h1.2v1.232c0.624-0.8,1.521-1.409,2.576-1.409V4c-0.145-0.016-0.287-0.031-0.465-0.031
		c-0.752,0-1.76,0.607-2.111,1.232v5.475H67.919L67.919,10.676z"/>
	<path fill="#333333" d="M72.542,9.651l0.607-0.863c0.514,0.592,1.489,1.104,2.545,1.104c1.186,0,1.842-0.562,1.842-1.328
		c0-1.873-4.785-0.722-4.785-3.586c0-1.217,1.022-2.225,2.865-2.225c1.327,0,2.256,0.496,2.864,1.121L77.92,4.706
		c-0.465-0.561-1.297-0.977-2.305-0.977c-1.058,0-1.714,0.528-1.714,1.217c0,1.68,4.785,0.576,4.785,3.586
		c0,1.297-1.041,2.336-3.024,2.336C74.383,10.868,73.327,10.467,72.542,9.651z"/>
</g>
</svg>
